<?xml version="1.0" encoding="UTF-8" standalone="no"?>
<svg
   xmlns:dc="http://purl.org/dc/elements/1.1/"
   xmlns:cc="http://creativecommons.org/ns#"
   xmlns:rdf="http://www.w3.org/1999/02/22-rdf-syntax-ns#"
   xmlns:svg="http://www.w3.org/2000/svg"
   xmlns="http://www.w3.org/2000/svg"
   xmlns:sodipodi="http://sodipodi.sourceforge.net/DTD/sodipodi-0.dtd"
   xmlns:inkscape="http://www.inkscape.org/namespaces/inkscape"
   width="110"
   height="440"
   viewBox="0 0 29.104167 116.41667"
   version="1.1"
   id="svg2142"
   inkscape:version="1.0.2 (e86c870879, 2021-01-15)"
   sodipodi:docname="floor-ceil-slider.svg">
  <defs
     id="defs2136" />
  <sodipodi:namedview
     id="base"
     pagecolor="#ffffff"
     bordercolor="#666666"
     borderopacity="1.0"
     inkscape:pageopacity="0.0"
     inkscape:pageshadow="2"
     inkscape:zoom="2.6868938"
     inkscape:cx="77.123481"
     inkscape:cy="73.5853"
     inkscape:document-units="px"
     inkscape:current-layer="layer1"
     inkscape:document-rotation="0"
     showgrid="false"
     inkscape:window-width="3440"
     inkscape:window-height="1377"
     inkscape:window-x="1432"
     inkscape:window-y="1432"
     inkscape:window-maximized="1"
     units="px"
     showguides="true"
     inkscape:guide-bbox="true" />
  <metadata
     id="metadata2139">
    <rdf:RDF>
      <cc:Work
         rdf:about="">
        <dc:format>image/svg+xml</dc:format>
        <dc:type
           rdf:resource="http://purl.org/dc/dcmitype/StillImage" />
        <dc:title></dc:title>
      </cc:Work>
    </rdf:RDF>
  </metadata>
  <g
     inkscape:label="Layer 1"
     inkscape:groupmode="layer"
     id="layer1">
    <path
       style="fill:none;stroke:#000000;stroke-width:0.264583;stroke-miterlimit:4;stroke-dasharray:none;stroke-opacity:1"
       d="m 14.552083,0.11136274 c 0.61009,0.39122336 1.220185,0.78245102 1.825419,1.17367436 0.605188,0.3912299 1.20547,0.7824521 1.796042,1.1736788 0.590521,0.3912266 1.171331,0.7824478 1.737724,1.1736843 0.566446,0.3912057 1.11837,0.7824402 1.651569,1.1736775 0.53315,0.3912081 1.047372,0.7824433 1.538707,1.1736774 0.491334,0.3912071 0.959579,0.7824443 1.40117,1.1736774 0.44159,0.3912102 0.856328,0.7824453 1.241042,1.1736805 0.384713,0.3912082 0.739304,0.7824433 1.060996,1.1736795 0.321694,0.3912091 0.610341,0.7824405 0.86381,1.1736495 0.25347,0.391238 0.471565,0.782475 0.65275,1.173681 0.181234,0.391232 0.32526,0.782473 0.431236,1.173677 0.105976,0.391237 0.173653,0.782471 0.202736,1.173681 0.02908,0.391236 0.01928,0.78247 -0.02903,1.173679 -0.04831,0.391236 -0.135355,0.78247 -0.260307,1.173678 -0.124902,0.391234 -0.287854,0.782472 -0.48737,1.173679 -0.199516,0.391234 -0.435794,0.782444 -0.706654,1.173679 -0.27091,0.391236 -0.57665,0.78244 -0.914543,1.173677 -0.337943,0.391237 -0.70824,0.782444 -1.107718,1.173681 -0.399527,0.391235 -0.828435,0.782441 -1.283056,1.173678 -0.45467,0.391234 -0.935253,0.782444 -1.437784,1.173678 -0.50248,0.391234 -1.027059,0.782443 -1.569324,1.173679 -0.542264,0.39121 -1.102316,0.782443 -1.675647,1.173677 -0.57328,0.391211 -1.159886,0.782447 -1.754967,1.173681 -0.595129,0.391208 -1.198781,0.782473 -1.806146,1.1736 -0.607319,0.391396 -1.218352,0.782524 -1.828146,1.173651 -0.609796,0.391401 -1.218349,0.782525 -1.820813,1.17365 -0.602462,0.391402 -1.198731,0.782526 -1.78415,1.173925 -0.5854181,0.391126 -1.1598374,0.782253 -1.7187494,1.173654 -0.5589617,0.391124 -1.1023176,0.782251 -1.6257559,1.17365 -0.5234879,0.391123 -1.0270087,0.782252 -1.5066004,1.173652 -0.4795916,0.391126 -0.9351541,0.782525 -1.3631687,1.173648 -0.4279669,0.391128 -0.8282863,0.782529 -1.1977904,1.173656 -0.3695031,0.391124 -0.7080902,0.782523 -1.013136,1.173649 -0.3050944,0.391124 -0.5765007,0.782525 -0.812234,1.173653 -0.2357829,0.391398 -0.43564397,0.782524 -0.59825056,1.173649 -0.16260562,0.391402 -0.28775462,0.782526 -0.37460521,1.17365 -0.0868982,0.391403 -0.13525698,0.782526 -0.14496742,1.173653 -0.00972,0.391399 0.0194598,0.782526 0.0870537,1.173926 0.0675746,0.391125 0.17380228,0.782251 0.31757995,1.173652 0.14382822,0.391123 0.32540954,0.782251 0.54310714,1.173648 0.2176995,0.391129 0.4717145,0.782528 0.7598161,1.173653 0.2881026,0.391127 0.6104882,0.782526 0.9643846,1.173653 0.3538497,0.391123 0.7393542,0.782523 1.1532983,1.17365 0.4139447,0.391127 0.8564277,0.782526 1.3237826,1.173651 0.467354,0.3914 0.9596762,0.782528 1.4729093,1.173652 0.5132332,0.391398 1.0474706,0.782525 1.5983567,1.173649 0.5508385,0.391402 1.118421,0.782527 1.6980416,1.173654 0.579671,0.391398 1.171382,0.782524 1.770475,1.173926 0.599094,0.391125 1.205519,0.782251 1.814372,1.17365 0.608854,0.391124 1.220234,0.782251 1.829085,1.173651 0.608904,0.391128 1.21528,0.782252 1.814373,1.173651 0.599093,0.391127 1.190804,0.782525 1.770474,1.173651 0.579622,0.391125 1.147156,0.782525 1.698041,1.173652 0.550937,0.391126 1.085076,0.782527 1.598359,1.173652 0.513281,0.391124 1.005505,0.782526 1.472911,1.173648 0.467403,0.391404 0.909785,0.782529 1.32378,1.173653 0.413995,0.3914 0.799402,0.782524 1.153349,1.173654 0.353896,0.391399 0.676134,0.782523 0.964335,1.173648 0.288151,0.391401 0.542018,0.782528 0.759816,1.173926 0.217798,0.391127 0.39923,0.782253 0.543107,1.173652 0.143878,0.391128 0.249952,0.782253 0.317581,1.17365 0.06768,0.391128 0.09671,0.782252 0.08705,1.173655 -0.0096,0.391123 -0.05817,0.782523 -0.144968,1.173649 -0.08675,0.391127 -0.212051,0.782528 -0.374606,1.173653 -0.162506,0.391122 -0.362567,0.782525 -0.598202,1.173648 -0.235682,0.391402 -0.507236,0.782527 -0.812233,1.173654 -0.305045,0.3914 -0.643733,0.782524 -1.013186,1.173652 -0.369454,0.391399 -0.769874,0.782521 -1.19779,1.173649 -0.427966,0.391401 -0.883628,0.782528 -1.363171,1.173927 -0.479541,0.391123 -0.983112,0.782252 -1.50655,1.17365 -0.523439,0.391126 -1.066894,0.782251 -1.625756,1.173651 -0.558912,0.391127 -1.133431,0.782251 -1.7188,1.173652 -0.585369,0.391126 -1.181688,0.782524 -1.784148,1.173652 -0.602412,0.391124 -1.211019,0.782527 -1.820814,1.17365 -0.609794,0.391125 -1.220827,0.782526 -1.828144,1.173651 -0.607367,0.391128 -1.211018,0.782526 -1.806098,1.173654 -0.595128,0.391401 -1.181686,0.782524 -1.7550169,1.17365 -0.573329,0.391399 -1.1333317,0.782526 -1.6756475,1.173649 C 7.4023647,92.049486 6.8778853,92.440614 6.375355,92.83174 5.8728247,93.223138 5.3922922,93.614265 4.9375715,94.005664 4.4829003,94.39679 4.0540926,94.787917 3.6545158,95.179323 3.2549891,95.57044 2.884791,95.961566 2.5468483,96.352972 2.208855,96.744088 1.9032649,97.135225 1.6323048,97.526621 1.3612961,97.917746 1.1252177,98.309152 0.92560152,98.700279 0.72603596,99.091415 0.56323205,99.482801 0.4382308,99.873918 c -0.12500027,0.391132 -0.21195195,0.782532 -0.26030586,1.173662 -0.0484161,0.39113 -0.0580196,0.78252 -0.0290244,1.17364 0.0289758,0.3914 0.0968128,0.78255 0.20273627,1.17365 0.10592543,0.3914 0.25010164,0.78255 0.4312368,1.17366 0.18108559,0.39139 0.39932839,0.78253 0.65274949,1.17393 0.2534201,0.39112 0.5422148,0.78225 0.8638587,1.17364 0.3215934,0.39112 0.676283,0.78224 1.0609476,1.17364 0.3846622,0.39113 0.7995496,0.78224 1.2410402,1.17365 0.4415412,0.39111 0.9098866,0.78253 1.4011707,1.17368 0.4912831,0.39112 1.0056058,0.78251 1.5387546,1.17365 0.5331002,0.39112 1.0851255,0.78251 1.6515202,1.17364 0.5663914,0.39112 1.1472039,0.78253 1.7377759,1.17364 0.590521,0.39141 1.190803,0.78253 1.79599,1.17365 0.605187,0.39141 1.215329,0.78255 1.825419,1.17365"
       title="sin(x)"
       id="path2880" />
    <path
       style="fill:none;stroke:#000000;stroke-width:0.264583;stroke-miterlimit:4;stroke-dasharray:none;stroke-opacity:1"
       d="M 14.552077,0.11136274 C 13.941986,0.5025861 13.331892,0.89381376 12.726657,1.2850371 12.121469,1.676267 11.521187,2.0674892 10.930616,2.4587159 10.340095,2.8499425 9.7592842,3.2411637 9.1928918,3.6324002 8.6264457,4.0236059 8.0745224,4.4148404 7.5413231,4.8060777 7.0081733,5.1972858 6.4939507,5.588521 6.0026161,5.9797551 5.5112815,6.3709622 5.0430371,6.7621994 4.6014464,7.1534325 4.1598557,7.5446427 3.7451179,7.9358778 3.3604043,8.327113 2.9756909,8.7183212 2.6211004,9.1095563 2.2994076,9.5007925 1.9777146,9.8920016 1.689068,10.283233 1.4355979,10.674442 1.182128,11.06568 0.96403283,11.456917 0.78284819,11.848123 0.60161427,12.239355 0.45758815,12.630596 0.35161227,13.0218 0.24563649,13.413037 0.17795862,13.804271 0.148876,14.195481 c -0.0290827,0.391236 -0.0192731,0.78247 0.0290331,1.173679 0.0483063,0.391236 0.13535574,0.78247 0.26030712,1.173678 0.12490181,0.391234 0.28785386,0.782472 0.48736975,1.173679 0.19951623,0.391234 0.43579413,0.782444 0.70665433,1.173679 0.2709098,0.391236 0.5766493,0.78244 0.9145433,1.173677 0.3379433,0.391237 0.7082395,0.782444 1.1077175,1.173681 0.3995273,0.391235 0.8284352,0.782441 1.2830558,1.173678 0.4546701,0.391234 0.9352533,0.782444 1.4377845,1.173678 0.5024797,0.391234 1.0270583,0.782443 1.5693236,1.173679 0.5422643,0.39121 1.1023156,0.782443 1.6756465,1.173677 0.5732805,0.391211 1.1598855,0.782447 1.7549665,1.173681 0.59513,0.391208 1.198782,0.782473 1.806147,1.1736 0.607319,0.391396 1.218352,0.782524 1.828146,1.173651 0.609796,0.391401 1.218349,0.782525 1.820813,1.17365 0.602461,0.391402 1.198731,0.782526 1.78415,1.173925 0.585418,0.391126 1.159837,0.782253 1.718749,1.173654 0.558962,0.391124 1.102318,0.782251 1.625756,1.17365 0.523488,0.391123 1.027009,0.782252 1.506601,1.173652 0.479591,0.391126 0.935154,0.782525 1.363168,1.173648 0.427967,0.391128 0.828287,0.782529 1.197791,1.173656 0.369503,0.391124 0.70809,0.782523 1.013136,1.173649 0.305095,0.391124 0.576501,0.782525 0.812234,1.173653 0.235783,0.391398 0.435644,0.782524 0.598251,1.173649 0.162605,0.391402 0.287754,0.782526 0.374605,1.17365 0.0869,0.391403 0.135257,0.782526 0.144967,1.173653 0.0097,0.391399 -0.01946,0.782526 -0.08705,1.173926 -0.06758,0.391125 -0.173803,0.782251 -0.31758,1.173652 -0.143829,0.391123 -0.32541,0.782251 -0.543107,1.173648 -0.2177,0.391129 -0.471715,0.782528 -0.759816,1.173653 -0.288103,0.391127 -0.610489,0.782526 -0.964385,1.173653 -0.35385,0.391123 -0.739354,0.782523 -1.153299,1.17365 -0.413945,0.391127 -0.856428,0.782526 -1.323782,1.173651 -0.467354,0.3914 -0.959677,0.782528 -1.47291,1.173652 -0.513233,0.391398 -1.04747,0.782525 -1.598356,1.173649 -0.550839,0.391402 -1.118421,0.782527 -1.698042,1.173654 -0.579672,0.391398 -1.171382,0.782524 -1.770476,1.173926 -0.599093,0.391125 -1.205518,0.782251 -1.814371,1.17365 -0.608855,0.391124 -1.220234,0.782251 -1.829086,1.173651 -0.608903,0.391128 -1.215279,0.782252 -1.814372,1.173651 -0.599093,0.391127 -1.190804,0.782525 -1.770475,1.173651 -0.5796212,0.391125 -1.147155,0.782525 -1.6980402,1.173652 -0.5509366,0.391126 -1.0850759,0.782527 -1.5983586,1.173652 -0.5132818,0.391124 -1.0055057,0.782526 -1.4729113,1.173648 -0.4674025,0.391404 -0.9097855,0.782529 -1.3237797,1.173653 -0.413995,0.3914 -0.7994022,0.782524 -1.1533486,1.173654 -0.3538969,0.391399 -0.6761349,0.782523 -0.9643356,1.173648 -0.2881511,0.391401 -0.5420175,0.782528 -0.7598155,1.173926 -0.21779787,0.391127 -0.39923018,0.782253 -0.54310749,1.173652 -0.1438774,0.391128 -0.24995233,0.782253 -0.31758063,1.17365 -0.0676776,0.391128 -0.0967107,0.782252 -0.0870498,1.173655 0.009613,0.391123 0.0581654,0.782523 0.14496742,1.173649 0.0867524,0.391127 0.21205071,0.782528 0.37460637,1.173653 0.16250638,0.391122 0.36256723,0.782525 0.59820103,1.173648 0.2356836,0.391402 0.5072375,0.782527 0.8122338,1.173654 0.3050459,0.3914 0.6437326,0.782524 1.0131863,1.173652 0.3694539,0.391399 0.7698731,0.782521 1.1977895,1.173649 0.4279659,0.391401 0.8836275,0.782528 1.3631706,1.173927 0.4795411,0.391123 0.9831125,0.782252 1.5065498,1.17365 0.5234393,0.391126 1.0668944,0.782251 1.6257569,1.173651 0.5589111,0.391127 1.1334305,0.782251 1.7187987,1.173652 0.58537,0.391126 1.181689,0.782524 1.784149,1.173652 0.602412,0.391124 1.211019,0.782527 1.820813,1.17365 0.609794,0.391125 1.220828,0.782526 1.828144,1.173651 0.607367,0.391128 1.211018,0.782526 1.806098,1.173654 0.595129,0.391401 1.181687,0.782524 1.755018,1.17365 0.573329,0.391399 1.133331,0.782526 1.675647,1.173649 0.542314,0.391401 1.066794,0.782529 1.569324,1.173655 0.50253,0.391398 0.983063,0.782525 1.437783,1.173924 0.454672,0.391126 0.883479,0.782253 1.283057,1.173659 0.399526,0.391117 0.769724,0.782243 1.107667,1.173649 0.337993,0.391116 0.643583,0.782253 0.914544,1.173649 0.271008,0.391125 0.507087,0.782531 0.706703,1.173658 0.199565,0.391136 0.362369,0.782522 0.48737,1.173639 0.125001,0.391132 0.211952,0.782532 0.260306,1.173662 0.04842,0.39113 0.05802,0.78252 0.02902,1.17364 -0.02898,0.3914 -0.09681,0.78255 -0.202737,1.17365 -0.105925,0.3914 -0.250101,0.78255 -0.431236,1.17366 -0.181086,0.39139 -0.399329,0.78253 -0.65275,1.17393 -0.25342,0.39112 -0.542215,0.78225 -0.863859,1.17364 -0.321593,0.39112 -0.676283,0.78224 -1.060947,1.17364 -0.384663,0.39113 -0.79955,0.78224 -1.241041,1.17365 -0.441541,0.39111 -0.909886,0.78253 -1.401171,1.17368 -0.491283,0.39112 -1.005605,0.78251 -1.538754,1.17365 -0.5331,0.39112 -1.085126,0.78251 -1.65152,1.17364 -0.566392,0.39112 -1.147205,0.78253 -1.737776,1.17364 -0.590521,0.39141 -1.190803,0.78253 -1.79599,1.17365 -0.605188,0.39141 -1.215329,0.78255 -1.82542,1.17365"
       title="sin(x)"
       id="path2865" />
    <path
       style="fill:none;stroke:#000000;stroke-width:0.264583;stroke-miterlimit:4;stroke-dasharray:none;stroke-opacity:1"
       d="M 14.552084,0.10470734 C 14.094482,0.49597679 13.63693,0.88724955 13.181409,1.278519 12.725887,1.6697921 12.272448,2.0610616 11.82312,2.4523333 11.373792,2.8436018 10.928626,3.234869 10.489555,3.6261496 10.050483,4.0174026 9.6176035,4.4086832 9.1928014,4.7999636 8.7679488,5.1912157 8.3512719,5.5824969 7.9445532,5.973777 7.5378345,6.3650301 7.1411237,6.7563103 6.7561559,7.1475904 6.371187,7.5388426 5.9980602,7.9301237 5.6383609,8.3214039 5.2786606,8.7126581 4.9324868,9.1039392 4.6012753,9.4952184 4.2701134,9.8864715 3.9540138,10.277752 3.6543128,10.669006 c -0.2996512,0.391282 -0.5828033,0.782562 -0.8482686,1.173816 -0.2654148,0.391279 -0.5130426,0.782561 -0.7418931,1.173812 -0.2288009,0.39128 -0.4386756,0.782561 -0.6287815,1.173814 -0.1901059,0.39128 -0.3603438,0.782563 -0.51002067,1.173816 -0.14967684,0.391282 -0.27869348,0.782561 -0.3866028,1.173811 -0.10791029,0.391281 -0.1945655,0.782562 -0.25966821,1.173815 -0.0651542,0.391282 -0.10865389,0.782534 -0.13045329,1.173816 -0.0218023,0.39128 -0.0217537,0.782531 0,1.173812 0.0217537,0.391281 0.0653486,0.782533 0.13045329,1.173814 0.0651056,0.391283 0.1518075,0.782535 0.25966821,1.173815 0.10785975,0.391281 0.23697456,0.782534 0.3866028,1.173813 0.14967687,0.391281 0.31996437,0.782534 0.51002067,1.173815 0.1900563,0.391253 0.4000302,0.782533 0.6287815,1.173813 0.2288009,0.391254 0.4765289,0.782534 0.7418931,1.173813 0.2654158,0.391253 0.548667,0.782562 0.8482686,1.173733 0.2996505,0.391445 0.6158006,0.782616 0.9469625,1.173787 0.331162,0.391445 0.6773853,0.782616 1.0370856,1.173787 0.3596498,0.391444 0.7328767,0.782614 1.117795,1.174059 0.3849183,0.391171 0.7816786,0.782342 1.1883973,1.173789 0.4067187,0.39117 0.8234462,0.782341 1.2482482,1.173784 0.4248021,0.391171 0.8577306,0.782341 1.2967536,1.173788 0.439022,0.391171 0.884237,0.782615 1.333565,1.173786 0.449328,0.39117 0.902767,0.782616 1.358289,1.173787 0.455521,0.39117 0.913073,0.782615 1.370675,1.173786 0.457601,0.391171 0.915154,0.782616 1.370674,1.173787 0.455522,0.391445 0.908962,0.782614 1.35829,1.173786 0.449327,0.391446 0.894493,0.782616 1.333564,1.173786 0.439073,0.391447 0.871952,0.782617 1.296754,1.173787 0.424803,0.391444 0.84153,0.782615 1.248249,1.174061 0.406718,0.391171 0.803428,0.782341 1.188397,1.173787 0.384968,0.39117 0.758094,0.782341 1.117795,1.173785 0.3597,0.391172 0.705874,0.782617 1.037085,1.173787 0.331162,0.391173 0.647263,0.782616 0.946963,1.173787 0.299651,0.391169 0.582803,0.782617 0.848218,1.173788 0.265465,0.391169 0.513093,0.782614 0.741894,1.173785 0.22885,0.391445 0.438725,0.782615 0.628831,1.173787 0.190106,0.391444 0.360294,0.782615 0.51002,1.173785 0.149677,0.391444 0.278694,0.782618 0.386604,1.173788 0.10786,0.391445 0.194515,0.782615 0.259667,1.174062 0.06516,0.391171 0.108653,0.782341 0.130454,1.173785 0.0218,0.39117 0.02175,0.78234 0,1.173785 -0.02175,0.391171 -0.06535,0.782344 -0.130454,1.173789 -0.0651,0.391171 -0.151807,0.782614 -0.259667,1.173784 -0.107861,0.391171 -0.236976,0.782615 -0.386604,1.173789 -0.149676,0.39117 -0.319964,0.782616 -0.51002,1.173785 -0.190057,0.391171 -0.400031,0.782617 -0.628831,1.173786 -0.228752,0.391444 -0.476479,0.782617 -0.741894,1.173787 -0.265366,0.391445 -0.548617,0.782615 -0.848218,1.173787 -0.299652,0.391445 -0.615801,0.782616 -0.946963,1.173785 -0.331162,0.391447 -0.677434,0.782617 -1.037085,1.174062 -0.359701,0.391172 -0.732877,0.782342 -1.117795,1.173787 -0.384918,0.39117 -0.781679,0.782341 -1.188397,1.173786 -0.406719,0.39117 -0.823446,0.782341 -1.248249,1.173787 -0.424802,0.391171 -0.857731,0.782615 -1.296754,1.173785 -0.439071,0.391173 -0.884237,0.782618 -1.333564,1.173788 -0.449328,0.39117 -0.902768,0.782615 -1.35829,1.173785 -0.45552,0.391446 -0.913073,0.782619 -1.370674,1.173789 -0.457602,0.391445 -0.915154,0.782614 -1.370675,1.173785 -0.455522,0.391445 -0.908961,0.782615 -1.358289,1.173787 -0.449328,0.391445 -0.894494,0.782616 -1.333565,1.174061 -0.439072,0.391171 -0.8719515,0.782341 -1.2967536,1.173786 -0.4248526,0.391171 -0.8415295,0.78234 -1.2482482,1.173787 -0.4067187,0.391171 -0.8034295,0.782341 -1.1883973,1.173786 -0.3849689,0.391171 -0.7580957,0.782616 -1.117795,1.173786 -0.3597003,0.391171 -0.7058741,0.782617 -1.0370856,1.173787 -0.3311619,0.391171 -0.6472615,0.782617 -0.9469625,1.173788 -0.2996512,0.391169 -0.5828033,0.782613 -0.8482686,1.173786 -0.2654148,0.391446 -0.5130426,0.782616 -0.7418931,1.173785 -0.2288009,0.391446 -0.4386756,0.782616 -0.6287815,1.173786 -0.1901059,0.391447 -0.3603438,0.782618 -0.51002067,1.173789 -0.14967684,0.391443 -0.27869348,0.782614 -0.3866028,1.17406 -0.10791029,0.391171 -0.1945655,0.782342 -0.25966821,1.173788 -0.0651542,0.391167 -0.10865389,0.782343 -0.13045329,1.173789 -0.0218023,0.391167 -0.0217537,0.782343 0,1.173779 0.0217537,0.391175 0.0653486,0.782622 0.13045329,1.173788 0.0651056,0.391186 0.1518075,0.782632 0.25966821,1.173799 0.10785975,0.391172 0.23697456,0.782612 0.3866028,1.173782 0.14967687,0.39118 0.31996437,0.78261 0.51002067,1.17379 0.1900563,0.39144 0.4000302,0.78262 0.6287815,1.17378 0.2288009,0.39147 0.4765289,0.78263 0.7418931,1.17378 0.2654158,0.39144 0.548667,0.78261 0.8482686,1.17407 0.2996505,0.39117 0.6158006,0.78235 0.9469625,1.17378 0.331162,0.39117 0.6773853,0.78233 1.0370856,1.17378 0.3596498,0.39117 0.7328767,0.78235 1.117795,1.17379 0.3849183,0.39117 0.7816786,0.78262 1.1883973,1.17381 0.4067187,0.39115 0.8234462,0.7826 1.2482482,1.17377 0.4248021,0.39117 0.8577306,0.78262 1.2967536,1.17379 0.439022,0.39116 0.884237,0.78263 1.333565,1.17377 0.449328,0.39147 0.902767,0.78262 1.358289,1.1738 0.455521,0.39145 0.913073,0.78262 1.370675,1.17379"
       title="sin(x)"
       id="path2844" />
    <path
       style="fill:none;stroke:#000000;stroke-width:0.264583;stroke-miterlimit:4;stroke-dasharray:none;stroke-opacity:1"
       d="M 14.552075,0.0899379 C 14.247028,0.48130227 13.941983,0.87268842 13.637532,1.2640416 13.333081,1.6554168 13.029274,2.046792 12.726657,2.4381563 12.424088,2.8295424 12.122709,3.2208955 11.823163,3.6122708 11.523617,4.0036239 11.225904,4.3950211 10.930619,4.7863753 10.635383,5.1777385 10.342526,5.5691137 10.052689,5.9604998 9.7628535,6.351853 9.4760906,6.7432281 9.1928947,7.1346242 8.9096989,7.5259674 8.6300693,7.9173535 8.3546506,8.3087177 8.0791842,8.7000709 7.8079276,9.091456 7.5413289,9.4828432 7.2747788,9.8741743 7.0129362,10.265571 6.7562958,10.656926 c -0.2566413,0.391375 -0.5080289,0.782773 -0.753671,1.174105 -0.245642,0.391385 -0.4855365,0.782759 -0.7192383,1.174124 -0.2337008,0.391364 -0.4611603,0.78275 -0.6819304,1.174104 -0.220771,0.391376 -0.4348527,0.782762 -0.6418493,1.174114 -0.2069976,0.391375 -0.4068105,0.782762 -0.5991912,1.174115 -0.1923815,0.391386 -0.3771831,0.782751 -0.554156,1.174115 -0.1769229,0.391369 -0.3459692,0.782722 -0.50684,1.174105 -0.1608213,0.39138 -0.3134185,0.782731 -0.457494,1.174108 -0.1440754,0.391383 -0.2795797,0.782735 -0.4063149,1.174115 -0.1267345,0.39138 -0.244601,0.782731 -0.3534997,1.174113 -0.10889923,0.39138 -0.20868171,0.782731 -0.29924949,1.174111 -0.0906162,0.391377 -0.17191929,0.782732 -0.24385789,1.174111 -0.0719389,0.391355 -0.13441444,0.782735 -0.18737716,1.174115 -0.0530118,0.391355 -0.0964143,0.782734 -0.13020318,1.174112 -0.0338378,0.39135 -0.0580157,0.782759 -0.0725328,1.174031 -0.014519,0.391546 -0.0193732,0.782814 -0.014519,1.174085 0.004802,0.391543 0.0193733,0.782814 0.0435512,1.174084 0.0241303,0.391546 0.0580157,0.782813 0.10141752,1.174357 0.0434005,0.391273 0.0964142,0.782542 0.15888951,1.174086 0.0624238,0.391269 0.13441376,0.782544 0.21571667,1.174088 0.0812528,0.391267 0.17191928,0.782536 0.27165239,1.17408 0.0997826,0.391273 0.20873113,0.782817 0.32654763,1.174088 0.1178666,0.391268 0.2446511,0.782813 0.3801062,1.174084 0.1354543,0.39127 0.2796291,0.782814 0.4321269,1.174082 0.1525477,0.391272 0.3134679,0.782818 0.4824147,1.174087 0.1689963,0.391549 0.3460192,0.782817 0.5307708,1.174088 0.1847515,0.391542 0.3771824,0.782814 0.5769455,1.174083 0.1997648,0.391544 0.4068606,0.782818 0.620843,1.174086 0.2139825,0.391545 0.4349013,0.782814 0.6622121,1.174358 0.2273604,0.391269 0.4611603,0.782543 0.7009557,1.174087 0.2397953,0.391268 0.4855861,0.78254 0.7368259,1.174081 0.2512409,0.391272 0.508029,0.782819 0.7697239,1.174086 0.2617435,0.391272 0.5284423,0.782816 0.7995987,1.174087 0.2711575,0.391268 0.546724,0.782814 0.8261552,1.174082 0.2794799,0.391273 0.5628244,0.782816 0.8494894,1.174086 0.2866647,0.391545 0.5765986,0.782814 0.8693076,1.174084 0.292709,0.391546 0.588143,0.782817 0.885658,1.174083 0.297564,0.391545 0.597259,0.782818 0.89849,1.174088 0.30123,0.391547 0.603947,0.782815 0.907655,1.174362 0.303658,0.391271 0.608258,0.782538 0.913155,1.174083 0.304897,0.39127 0.610092,0.782541 0.914988,1.174086 0.304897,0.391269 0.609497,0.782538 0.913155,1.174084 0.303658,0.391272 0.606425,0.782814 0.907655,1.174084 0.301232,0.391268 0.600926,0.782813 0.898441,1.174088 0.297563,0.391268 0.592998,0.782814 0.885707,1.174081 0.292709,0.391272 0.582643,0.782814 0.869308,1.174086 0.286665,0.391545 0.570009,0.782813 0.849441,1.174086 0.27948,0.391542 0.555047,0.782814 0.826204,1.174083 0.271157,0.391545 0.537855,0.782813 0.79955,1.174086 0.261743,0.391545 0.518483,0.782812 0.769773,1.174357 0.251289,0.391269 0.497031,0.782542 0.736826,1.174089 0.239795,0.391268 0.473596,0.782542 0.700955,1.174085 0.22731,0.391269 0.448181,0.782538 0.662213,1.174084 0.213982,0.391268 0.421028,0.782812 0.620841,1.174086 0.199764,0.391269 0.392195,0.782813 0.576947,1.174082 0.184752,0.391271 0.361774,0.782816 0.53072,1.174085 0.168996,0.391547 0.329917,0.782815 0.482416,1.174087 0.152547,0.391544 0.296673,0.782815 0.432127,1.174082 0.135504,0.391545 0.262288,0.782817 0.380105,1.174087 0.117866,0.391544 0.226815,0.782812 0.326597,1.174357 0.09978,0.391272 0.190351,0.782543 0.271653,1.174085 0.0813,0.39127 0.153241,0.782542 0.215717,1.174084 0.06248,0.391271 0.115488,0.78254 0.158889,1.174086 0.04345,0.39127 0.07724,0.782818 0.101418,1.174088 0.02417,0.391271 0.0387,0.782816 0.04356,1.174083 0.0049,0.39127 0,0.782816 -0.01451,1.174086 -0.01452,0.391272 -0.0387,0.782814 -0.07253,1.174085 -0.03379,0.391546 -0.07724,0.782813 -0.130203,1.174081 -0.05297,0.391546 -0.115488,0.78282 -0.187377,1.174086 -0.07194,0.391545 -0.153291,0.782816 -0.243859,1.174088 -0.09057,0.391544 -0.190405,0.782812 -0.299254,1.174358 -0.108849,0.391269 -0.226814,0.782543 -0.3535,1.17409 -0.126734,0.391266 -0.262289,0.782532 -0.406314,1.174088 -0.144076,0.391267 -0.296723,0.782533 -0.457544,1.174079 -0.160822,0.391265 -0.329868,0.782812 -0.50684,1.174078 -0.176923,0.391286 -0.361775,0.782823 -0.554106,1.174089 -0.192332,0.391272 -0.392245,0.782812 -0.599192,1.174102 -0.206996,0.39126 -0.421078,0.78281 -0.641849,1.17407 -0.22077,0.39155 -0.448279,0.78281 -0.68193,1.17409 -0.233702,0.39154 -0.473596,0.78281 -0.719239,1.17409 -0.245641,0.39153 -0.497029,0.7828 -0.75367,1.17435 -0.256641,0.39126 -0.518484,0.78254 -0.785082,1.17409 -0.266551,0.39126 -0.537806,0.78251 -0.813274,1.17407 -0.275418,0.39127 -0.555047,0.78253 -0.838244,1.17409 -0.283197,0.39126 -0.570009,0.78282 -0.859794,1.17409 -0.289836,0.39127 -0.582694,0.78282 -0.87798,1.17408 -0.295235,0.39127 -0.592948,0.78282 -0.892494,1.17409 -0.299546,0.39126 -0.600925,0.78283 -0.903494,1.17408 -0.302618,0.39154 -0.606425,0.78283 -0.910877,1.17408 -0.30445,0.39157 -0.609495,0.78282 -0.914541,1.1741"
       title="sin(x)"
       id="path2584" />
    <path
       style="fill:none;stroke:#000000;stroke-width:0.264583;stroke-miterlimit:4;stroke-dasharray:none;stroke-opacity:1"
       d="m 14.552079,116.32683 c -0.305047,-0.39137 -0.610092,-0.78274 -0.914543,-1.17411 -0.304451,-0.39137 -0.608258,-0.78274 -0.910875,-1.17411 -0.302569,-0.39138 -0.603948,-0.78275 -0.903494,-1.17412 -0.299547,-0.39134 -0.597259,-0.78275 -0.892544,-1.17409 -0.295237,-0.39137 -0.588093,-0.78275 -0.87793,-1.17413 -0.2898356,-0.39136 -0.5765985,-0.78274 -0.8597944,-1.17414 -0.2831958,-0.39134 -0.5628254,-0.78273 -0.8382441,-1.1741 -0.2754664,-0.39134 -0.546723,-0.78272 -0.8133217,-1.1741 -0.2665501,-0.39134 -0.5283927,-0.78273 -0.7850331,-1.17409 -0.2566413,-0.39138 -0.508029,-0.78278 -0.753671,-1.1741 -0.245642,-0.39138 -0.4855365,-0.78276 -0.7192383,-1.17412 C 5.0496896,103.02025 4.8222301,102.62886 4.60146,102.23751 4.380689,101.84614 4.1666073,101.45475 3.9596107,101.06339 3.7526131,100.67202 3.5528003,100.28063 3.3604189,99.889278 3.1680375,99.497912 2.9832359,99.106525 2.8062629,98.715159 2.6293405,98.323793 2.4602943,97.932436 2.2994237,97.541051 2.1386017,97.149685 1.9860049,96.758319 1.8419289,96.366952 1.6978537,95.975566 1.5623499,95.58421 1.4356145,95.192834 1.3088802,94.801447 1.1910135,94.4101 1.0821147,94.01872 0.97321585,93.627338 0.87343259,93.235986 0.78286501,92.844606 0.69225369,92.453229 0.61094553,92.061875 0.5390076,91.670495 0.46706871,91.279142 0.40459239,90.887759 0.35163015,90.496379 0.29861641,90.105026 0.2552159,89.713648 0.22142668,89.322268 0.18759078,88.930917 0.16340708,88.53951 0.14889488,88.148239 c -0.0145219,-0.391547 -0.0193723,-0.782817 -0.0145219,-1.174086 0.004763,-0.391542 0.0193723,-0.782814 0.0435463,-1.174084 0.0241254,-0.391544 0.0580196,-0.782814 0.10141819,-1.174358 0.0434005,-0.391274 0.0964143,-0.782541 0.15888864,-1.174087 0.0624229,-0.391267 0.13441425,-0.78254 0.21571754,-1.174085 0.0812508,-0.391269 0.17191851,-0.782538 0.2716522,-1.174082 C 1.025378,80.712184 1.1343265,80.32064 1.2521436,79.92937 1.3700103,79.538102 1.4967942,79.146557 1.6322495,78.755286 1.7677038,78.364015 1.911879,77.972471 2.0643766,77.581205 2.2169238,77.189932 2.377844,76.798386 2.546791,76.407116 2.7157877,76.015567 2.8928102,75.6243 3.0775623,75.233028 3.2623133,74.841487 3.4547443,74.450215 3.6545072,74.058944 3.8542724,73.6674 4.0613681,73.276128 4.2753506,72.884859 4.4893331,72.493314 4.7102519,72.102046 4.9375627,71.710503 5.1649231,71.319233 5.398723,70.927961 5.6385184,70.536415 5.8783137,70.145146 6.1241045,69.753874 6.3753443,69.362333 6.6265852,68.97106 6.8833733,68.579516 7.1450682,68.188249 7.4068116,67.796976 7.6735104,67.405433 7.9446669,67.014161 8.2158244,66.622893 8.4913909,66.231347 8.7708221,65.840078 9.050302,65.448807 9.3336465,65.057262 9.6203115,64.665992 9.9069762,64.274447 10.19691,63.88318 10.489619,63.491908 c 0.292709,-0.391546 0.588144,-0.782815 0.885658,-1.174082 0.297564,-0.391547 0.597259,-0.782818 0.89849,-1.174089 0.301231,-0.391546 0.603947,-0.782815 0.907655,-1.17436 0.303658,-0.39127 0.608258,-0.782541 0.913155,-1.174086 0.304897,-0.391268 0.610092,-0.782539 0.914988,-1.174086 0.304897,-0.391268 0.609497,-0.782536 0.913155,-1.174081 0.303658,-0.391273 0.606426,-0.782815 0.907655,-1.174085 0.301232,-0.391268 0.600926,-0.782815 0.898441,-1.174087 0.297564,-0.391267 0.592998,-0.782816 0.885707,-1.174083 0.292709,-0.391271 0.582643,-0.782814 0.869308,-1.174085 0.286665,-0.391546 0.570009,-0.782813 0.849441,-1.174086 0.279481,-0.391542 0.555047,-0.782816 0.826204,-1.174082 0.271157,-0.391545 0.537855,-0.782815 0.79955,-1.174086 0.261743,-0.391545 0.518483,-0.782815 0.769773,-1.17436 0.25129,-0.391267 0.497031,-0.782541 0.736826,-1.174087 0.239795,-0.391268 0.473596,-0.782541 0.700955,-1.174084 0.22731,-0.391271 0.448181,-0.78254 0.662213,-1.174085 0.213982,-0.391269 0.421028,-0.782814 0.620841,-1.174087 0.199764,-0.391269 0.392195,-0.782812 0.576947,-1.174081 0.184752,-0.391271 0.361774,-0.782818 0.53072,-1.174086 0.168996,-0.391545 0.329917,-0.782814 0.482416,-1.174087 0.152547,-0.391544 0.296673,-0.782813 0.432127,-1.174082 0.135504,-0.391544 0.262288,-0.782815 0.380105,-1.174086 0.117866,-0.391545 0.226815,-0.782812 0.326597,-1.174358 0.09978,-0.391273 0.190351,-0.782542 0.271653,-1.174083 0.0813,-0.39127 0.153242,-0.782543 0.215717,-1.174086 0.06248,-0.391271 0.115488,-0.78254 0.15889,-1.174085 0.04345,-0.391271 0.07724,-0.782816 0.101417,-1.174089 0.02417,-0.391269 0.0387,-0.782814 0.04356,-1.174082 0.0049,-0.391271 0,-0.782816 -0.01451,-1.174087 -0.01452,-0.39127 -0.0387,-0.782814 -0.07253,-1.174085 -0.03379,-0.391544 -0.07724,-0.782811 -0.130203,-1.174083 -0.05297,-0.391545 -0.115488,-0.782815 -0.187377,-1.174084 -0.07194,-0.391545 -0.153291,-0.782815 -0.243859,-1.174086 C 28.230734,23.180651 28.130899,22.789385 28.02205,22.397839 27.913201,22.00657 27.795236,21.615296 27.66855,21.223751 27.541816,20.832484 27.406261,20.441214 27.262236,20.049669 27.11816,19.658397 26.965513,19.26713 26.804692,18.875585 26.64387,18.484315 26.474824,18.09277 26.297852,17.7015 26.120929,17.310224 25.936078,16.918684 25.743746,16.527419 25.551414,16.136142 25.351501,15.744602 25.144554,15.353326 24.937558,14.962062 24.723476,14.57051 24.502705,14.179245 24.281935,13.787693 24.054426,13.396428 23.820775,13.005163 23.587073,12.613611 23.347179,12.222346 23.101536,11.831072 22.855895,11.439531 22.604507,11.048254 22.347866,10.656713 22.091217,10.265448 21.829374,9.8741713 21.562776,9.4826312 21.296226,9.091354 21.02497,8.7000889 20.749503,8.3085387 20.474084,7.9172735 20.194455,7.5260084 19.911258,7.1344572 19.628062,6.7431911 19.341249,6.35164 19.051464,5.9603748 18.761628,5.5690997 18.46877,5.1775595 18.173484,4.7862943 17.878249,4.3950178 17.580536,4.0034776 17.28099,3.6122015 16.981444,3.2209363 16.680065,2.829385 16.377497,2.4381199 16.074878,2.0465796 15.771071,1.6553034 15.466619,1.2640383 15.162169,0.87248711 14.857124,0.48122196 14.552078,0.0899457"
       title="sin(x)"
       id="path2842" />
    <path
       style="fill:none;stroke:#000000;stroke-width:0.264583;stroke-miterlimit:4;stroke-dasharray:none;stroke-opacity:1"
       d="m 14.552082,0.10470734 c 0.457602,0.39126945 0.915154,0.78254221 1.370674,1.17381166 0.455522,0.3912731 0.908962,0.7825426 1.35829,1.1738143 0.449328,0.3912685 0.894493,0.7825357 1.333565,1.1738163 0.439072,0.391253 0.871951,0.7825336 1.296753,1.173814 0.424853,0.3912521 0.84153,0.7825333 1.248249,1.1738134 0.406718,0.3912531 0.803429,0.7825333 1.188397,1.1738134 0.384969,0.3912522 0.758096,0.7825333 1.117795,1.1738135 0.3597,0.3912542 0.705874,0.7825353 1.037085,1.1738145 0.331162,0.3912531 0.647262,0.7825336 0.946963,1.1737876 0.299651,0.391282 0.582803,0.782562 0.848268,1.173816 0.265415,0.391279 0.513043,0.782561 0.741893,1.173812 0.228801,0.39128 0.438676,0.782561 0.628782,1.173814 0.190106,0.39128 0.360344,0.782563 0.51002,1.173816 0.149677,0.391282 0.278694,0.782561 0.386603,1.173811 0.10791,0.391281 0.194566,0.782562 0.259668,1.173815 0.06516,0.391282 0.108654,0.782534 0.130454,1.173816 0.0218,0.39128 0.02175,0.782531 0,1.173812 -0.02175,0.391281 -0.06535,0.782533 -0.130454,1.173814 -0.0651,0.391283 -0.151807,0.782535 -0.259668,1.173815 -0.10786,0.391281 -0.236974,0.782534 -0.386603,1.173813 -0.149676,0.391281 -0.319964,0.782534 -0.51002,1.173815 -0.190057,0.391253 -0.40003,0.782533 -0.628782,1.173813 -0.228801,0.391254 -0.476529,0.782534 -0.741893,1.173813 -0.265416,0.391253 -0.548667,0.782562 -0.848268,1.173733 -0.299651,0.391445 -0.615801,0.782616 -0.946963,1.173787 -0.331162,0.391445 -0.677385,0.782616 -1.037085,1.173787 -0.35965,0.391444 -0.732877,0.782614 -1.117795,1.174059 -0.384918,0.391171 -0.781679,0.782342 -1.188397,1.173789 -0.406719,0.39117 -0.823447,0.782341 -1.248249,1.173784 -0.424802,0.391171 -0.857731,0.782341 -1.296753,1.173788 -0.439022,0.391171 -0.884237,0.782615 -1.333565,1.173786 -0.449328,0.39117 -0.902768,0.782616 -1.35829,1.173787 -0.45552,0.39117 -0.913072,0.782615 -1.370674,1.173786 -0.457602,0.391171 -0.915154,0.782616 -1.370675,1.173787 -0.455521,0.391445 -0.908961,0.782614 -1.358289,1.173786 -0.449328,0.391446 -0.894494,0.782616 -1.333565,1.173786 -0.439072,0.391447 -0.8719515,0.782617 -1.2967535,1.173787 -0.424803,0.391444 -0.8415296,0.782615 -1.2482483,1.174061 C 7.5378326,45.100865 7.1411228,45.492035 6.7561539,45.883481 6.371186,46.274651 5.9980593,46.665822 5.638359,47.057266 5.2786586,47.448438 4.9324849,47.839883 4.6012734,48.231053 4.2701115,48.622226 3.9540109,49.013669 3.6543107,49.40484 3.3546599,49.796009 3.0715076,50.187457 2.8060925,50.578628 2.540628,50.969797 2.2929998,51.361242 2.0641989,51.752413 1.8353484,52.143858 1.6254738,52.535028 1.4353679,52.9262 1.2452619,53.317644 1.0750733,53.708815 0.92534699,54.099985 0.77567015,54.491429 0.6466537,54.882603 0.5387437,55.273773 c -0.10786042,0.391445 -0.19451545,0.782615 -0.25966773,1.174062 -0.0651523,0.391171 -0.1086532,0.782341 -0.13045318,1.173785 -0.0218004,0.39117 -0.0217508,0.78234 0,1.173785 0.0217508,0.391171 0.0653506,0.782344 0.13045318,1.173789 0.0651027,0.391171 0.15180731,0.782614 0.25966773,1.173784 0.10786052,0.391171 0.23697592,0.782615 0.38660329,1.173789 0.14967681,0.39117 0.31996451,0.782616 0.51002091,1.173785 0.1900564,0.391171 0.40003,0.782617 0.628831,1.173786 0.2287514,0.391444 0.4764785,0.782617 0.7418936,1.173787 0.2653655,0.391445 0.5486169,0.782615 0.8482182,1.173787 0.2996516,0.391445 0.6158008,0.782616 0.9469627,1.173785 0.3311619,0.391447 0.6774348,0.782617 1.0370856,1.174062 0.3597003,0.391172 0.7328766,0.782342 1.1177949,1.173787 0.3849183,0.39117 0.7816787,0.782341 1.1883973,1.173786 0.4067187,0.39117 0.8234453,0.782341 1.2482483,1.173787 0.424802,0.391171 0.8577305,0.782615 1.2967535,1.173785 0.439071,0.391173 0.884237,0.782618 1.333565,1.173788 0.449328,0.39117 0.902768,0.782615 1.358289,1.173785 0.455521,0.391446 0.913073,0.782619 1.370675,1.173789 0.457602,0.391445 0.915154,0.782614 1.370674,1.173785 0.455522,0.391445 0.908962,0.782615 1.35829,1.173787 0.449328,0.391445 0.894493,0.782616 1.333565,1.174061 0.439072,0.391171 0.871951,0.782341 1.296753,1.173786 0.424853,0.391171 0.84153,0.78234 1.248249,1.173787 0.406718,0.391171 0.803429,0.782341 1.188397,1.173786 0.384969,0.391171 0.758096,0.782616 1.117795,1.173786 0.3597,0.391171 0.705874,0.782617 1.037085,1.173787 0.331162,0.391171 0.647262,0.782617 0.946963,1.173788 0.299651,0.391169 0.582803,0.782613 0.848268,1.173786 0.265415,0.391446 0.513043,0.782616 0.741893,1.173785 0.228801,0.391446 0.438676,0.782616 0.628782,1.173786 0.190106,0.391447 0.360344,0.782618 0.51002,1.173789 0.149677,0.391443 0.278694,0.782614 0.386603,1.17406 0.10791,0.391171 0.194566,0.782342 0.259668,1.173788 0.06516,0.391167 0.108654,0.782343 0.130454,1.173789 0.0218,0.391167 0.02175,0.782343 0,1.173779 -0.02175,0.391175 -0.06535,0.782622 -0.130454,1.173788 -0.0651,0.391186 -0.151807,0.782632 -0.259668,1.173799 -0.10786,0.391172 -0.236974,0.782612 -0.386603,1.173782 -0.149676,0.39118 -0.319964,0.78261 -0.51002,1.17379 -0.190057,0.39144 -0.40003,0.78262 -0.628782,1.17378 -0.228801,0.39147 -0.476529,0.78263 -0.741893,1.17378 -0.265416,0.39144 -0.548667,0.78261 -0.848268,1.17407 -0.299651,0.39117 -0.615801,0.78235 -0.946963,1.17378 -0.331162,0.39117 -0.677385,0.78233 -1.037085,1.17378 -0.35965,0.39117 -0.732877,0.78235 -1.117795,1.17379 -0.384918,0.39117 -0.781679,0.78262 -1.188397,1.17381 -0.406719,0.39115 -0.823447,0.7826 -1.248249,1.17377 -0.424802,0.39117 -0.857731,0.78262 -1.296753,1.17379 -0.439022,0.39116 -0.884237,0.78263 -1.333565,1.17377 -0.449328,0.39147 -0.902768,0.78262 -1.35829,1.1738 -0.45552,0.39145 -0.913072,0.78262 -1.370674,1.17379"
       title="sin(x)"
       id="path2829" />
  </g>
</svg>
